<svg id="SvgjsSvg1006" width="1062.9999389648438" height="897.8166809082031" xmlns="http://www.w3.org/2000/svg" version="1.1" xmlns:xlink="http://www.w3.org/1999/xlink" xmlns:svgjs="http://svgjs.com/svgjs"><defs id="SvgjsDefs1007"><marker id="SvgjsMarker1050" markerWidth="16" markerHeight="12" refX="16" refY="6" viewBox="0 0 16 12" orient="auto" markerUnits="userSpaceOnUse" stroke-dasharray="0,0"><path id="SvgjsPath1051" d="M0,2 L14,6 L0,11 L0,2" fill="#323232" stroke="#323232" stroke-width="2"></path></marker><marker id="SvgjsMarker1060" markerWidth="16" markerHeight="12" refX="16" refY="6" viewBox="0 0 16 12" orient="auto" markerUnits="userSpaceOnUse" stroke-dasharray="0,0"><path id="SvgjsPath1061" d="M0,2 L14,6 L0,11 L0,2" fill="#323232" stroke="#323232" stroke-width="2"></path></marker><marker id="SvgjsMarker1084" markerWidth="16" markerHeight="12" refX="16" refY="6" viewBox="0 0 16 12" orient="auto" markerUnits="userSpaceOnUse" stroke-dasharray="0,0"><path id="SvgjsPath1085" d="M0,2 L14,6 L0,11 L0,2" fill="#323232" stroke="#323232" stroke-width="2"></path></marker><marker id="SvgjsMarker1092" markerWidth="16" markerHeight="12" refX="16" refY="6" viewBox="0 0 16 12" orient="auto" markerUnits="userSpaceOnUse" stroke-dasharray="0,0"><path id="SvgjsPath1093" d="M0,2 L14,6 L0,11 L0,2" fill="#323232" stroke="#323232" stroke-width="2"></path></marker><marker id="SvgjsMarker1138" markerWidth="16" markerHeight="12" refX="16" refY="6" viewBox="0 0 16 12" orient="auto" markerUnits="userSpaceOnUse" stroke-dasharray="0,0"><path id="SvgjsPath1139" d="M0,2 L14,6 L0,11 L0,2" fill="#323232" stroke="#323232" stroke-width="2"></path></marker><marker id="SvgjsMarker1142" markerWidth="16" markerHeight="12" refX="16" refY="6" viewBox="0 0 16 12" orient="auto" markerUnits="userSpaceOnUse" stroke-dasharray="0,0"><path id="SvgjsPath1143" d="M0,2 L14,6 L0,11 L0,2" fill="#323232" stroke="#323232" stroke-width="2"></path></marker><marker id="SvgjsMarker1180" markerWidth="16" markerHeight="12" refX="16" refY="6" viewBox="0 0 16 12" orient="auto" markerUnits="userSpaceOnUse" stroke-dasharray="0,0"><path id="SvgjsPath1181" d="M0,2 L14,6 L0,11 L0,2" fill="#323232" stroke="#323232" stroke-width="2"></path></marker></defs><g id="SvgjsG1008" transform="translate(322.15316071236066,25.00555759006076)"><path id="SvgjsPath1009" d="M 0 4Q 0 0 4 0L 306.61904930283015 0Q 310.61904930283015 0 310.61904930283015 4L 310.61904930283015 402.7570457195643Q 310.61904930283015 406.7570457195643 306.61904930283015 406.7570457195643L 4 406.7570457195643Q 0 406.7570457195643 0 402.7570457195643Z" stroke="rgba(50,50,50,1)" stroke-width="2" fill-opacity="1" fill="#ff9999"></path><g id="SvgjsG1010"><text id="SvgjsText1011" font-family="微软雅黑" text-anchor="middle" font-size="19px" width="291px" fill="#323232" font-weight="700" align="middle" anchor="middle" family="微软雅黑" size="19px" weight="700" font-style="" opacity="1" y="188.52852285978216" transform="rotate(0)"><tspan id="SvgjsTspan1012" dy="23" x="155.5"><tspan id="SvgjsTspan1013" style="text-decoration:;"> </tspan></tspan></text></g></g><g id="SvgjsG1014" transform="translate(739.0832079761304,125.1888901661965)"><path id="SvgjsPath1015" d="M 0 0L 227.68900203906026 0L 243.68900203906026 16L 243.68900203906026 355.37222297941986L 0 355.37222297941986L 0 0Z" stroke="none" fill-opacity="1" fill="#ffffaa"></path><path id="SvgjsPath1016" d="M 227.68900203906026 0L 227.68900203906026 16L 243.68900203906026 16Z" stroke="none" fill-opacity="1" fill="#cdcdcd"></path><path id="SvgjsPath1017" d="M 0 0L 227.68900203906026 0L 243.68900203906026 16L 243.68900203906026 355.37222297941986L 0 355.37222297941986L 0 0Z" stroke="none" fill="none"></path><g id="SvgjsG1018"><text id="SvgjsText1019" font-family="微软雅黑" text-anchor="middle" font-size="18px" width="224px" fill="#323232" font-weight="700" align="middle" anchor="middle" family="微软雅黑" size="18px" weight="700" font-style="" opacity="1" y="13.98611148970993" transform="rotate(0)"><tspan id="SvgjsTspan1020" dy="22" x="122"><tspan id="SvgjsTspan1021" style="text-decoration:;">一级缓存中存放的都是已经</tspan></tspan><tspan id="SvgjsTspan1022" dy="22" x="122"><tspan id="SvgjsTspan1023" style="text-decoration:;">创建完全的对象，即该对象</tspan></tspan><tspan id="SvgjsTspan1024" dy="22" x="122"><tspan id="SvgjsTspan1025" style="text-decoration:;">已经实例化且初始化完成</tspan></tspan><tspan id="SvgjsTspan1026" dy="22" x="122"><tspan id="SvgjsTspan1027" style="text-decoration:;">（但不保证该对象中域里的</tspan></tspan><tspan id="SvgjsTspan1028" dy="22" x="122"><tspan id="SvgjsTspan1029" style="text-decoration:;">所有子域也注入完成）。当</tspan></tspan><tspan id="SvgjsTspan1030" dy="22" x="122"><tspan id="SvgjsTspan1031" style="text-decoration:;">一个对象初始化完成后检查</tspan></tspan><tspan id="SvgjsTspan1032" dy="22" x="122"><tspan id="SvgjsTspan1033" style="text-decoration:;">若需要代理就将</tspan></tspan><tspan id="SvgjsTspan1034" dy="22" x="122"><tspan id="SvgjsTspan1035" style="text-decoration:;">earlyProxyObjects中的代</tspan></tspan><tspan id="SvgjsTspan1036" dy="22" x="122"><tspan id="SvgjsTspan1037" style="text-decoration:;">理对象加入一级缓存，如果</tspan></tspan><tspan id="SvgjsTspan1038" dy="22" x="122"><tspan id="SvgjsTspan1039" style="text-decoration:;">不需要就将</tspan></tspan><tspan id="SvgjsTspan1040" dy="22" x="122"><tspan id="SvgjsTspan1041" style="text-decoration:;">earlyRealObjects中的原对</tspan></tspan><tspan id="SvgjsTspan1042" dy="22" x="122"><tspan id="SvgjsTspan1043" style="text-decoration:;">象加入一级缓存中。加入一</tspan></tspan><tspan id="SvgjsTspan1044" dy="22" x="122"><tspan id="SvgjsTspan1045" style="text-decoration:;">级缓存后同时需要删除在两</tspan></tspan><tspan id="SvgjsTspan1046" dy="22" x="122"><tspan id="SvgjsTspan1047" style="text-decoration:;">个二级缓存中的对应内容</tspan></tspan></text></g></g><g id="SvgjsG1048"><path id="SvgjsPath1049" d="M632.7722100151913 228.38408044984232C 684.6966560953625 228.38408044984232 687.1587618959592 302.8750016559064 739.0832079761304 302.8750016559064" stroke="#323232" stroke-width="2" fill="none" marker-end="url(#SvgjsMarker1050)"></path></g><g id="SvgjsG1052" transform="translate(249.636559460637,541.8089325116656)"><path id="SvgjsPath1053" d="M 0 4Q 0 0 4 0L 153.35987277619142 0Q 157.35987277619142 0 157.35987277619142 4L 157.35987277619142 326.56535368679283Q 157.35987277619142 330.56535368679283 153.35987277619142 330.56535368679283L 4 330.56535368679283Q 0 330.56535368679283 0 326.56535368679283Z" stroke="rgba(50,50,50,1)" stroke-width="2" fill-opacity="1" fill="#99ffcc"></path><g id="SvgjsG1054"><text id="SvgjsText1055" font-family="微软雅黑" text-anchor="middle" font-size="13px" width="138px" fill="#323232" font-weight="400" align="middle" anchor="middle" family="微软雅黑" size="13px" weight="400" font-style="" opacity="1" y="155.33267684339643" transform="rotate(0)"><tspan id="SvgjsTspan1056" dy="16" x="79"><tspan id="SvgjsTspan1057" style="text-decoration:;"> </tspan></tspan></text></g></g><g id="SvgjsG1058"><path id="SvgjsPath1059" d="M477.4626853637757 431.76260330962407C 477.4626853637757 505.9027737088901 328.3164958487325 467.6687621123996 328.3164958487325 541.8089325116656" stroke="#323232" stroke-width="2" fill="none" marker-end="url(#SvgjsMarker1060)"></path></g><g id="SvgjsG1062" transform="translate(24.99443223741322,608.9487665545382)"><path id="SvgjsPath1063" d="M 0 0L 156.2222222222222 0L 172.2222222222222 16L 172.2222222222222 261.5622794663277L 0 261.5622794663277L 0 0Z" stroke="none" fill-opacity="1" fill="#ffffaa"></path><path id="SvgjsPath1064" d="M 156.2222222222222 0L 156.2222222222222 16L 172.2222222222222 16Z" stroke="none" fill-opacity="1" fill="#cdcdcd"></path><path id="SvgjsPath1065" d="M 0 0L 156.2222222222222 0L 172.2222222222222 16L 172.2222222222222 261.5622794663277L 0 261.5622794663277L 0 0Z" stroke="none" fill="none"></path><g id="SvgjsG1066"><text id="SvgjsText1067" font-family="微软雅黑" text-anchor="middle" font-size="18px" width="153px" fill="#323232" font-weight="700" align="middle" anchor="middle" family="微软雅黑" size="18px" weight="700" font-style="" opacity="1" y="47.58113973316385" transform="rotate(0)"><tspan id="SvgjsTspan1068" dy="22" x="86.5"><tspan id="SvgjsTspan1069" style="text-decoration:;">二级缓存的</tspan></tspan><tspan id="SvgjsTspan1070" dy="22" x="86.5"><tspan id="SvgjsTspan1071" style="text-decoration:;">earlyRealObjects</tspan></tspan><tspan id="SvgjsTspan1072" dy="22" x="86.5"><tspan id="SvgjsTspan1073" style="text-decoration:;">中存放的都是还未</tspan></tspan><tspan id="SvgjsTspan1074" dy="22" x="86.5"><tspan id="SvgjsTspan1075" style="text-decoration:;">创建完成的半成品</tspan></tspan><tspan id="SvgjsTspan1076" dy="22" x="86.5"><tspan id="SvgjsTspan1077" style="text-decoration:;">对象。即只完成了</tspan></tspan><tspan id="SvgjsTspan1078" dy="22" x="86.5"><tspan id="SvgjsTspan1079" style="text-decoration:;">实例化但并未初始</tspan></tspan><tspan id="SvgjsTspan1080" dy="22" x="86.5"><tspan id="SvgjsTspan1081" style="text-decoration:;">化</tspan></tspan></text></g></g><g id="SvgjsG1082"><path id="SvgjsPath1083" d="M249.636559460637 707.0916093550628C 224.93642224003935 707.0916093550628 221.91679168023302 739.7299062877029 197.21665445963538 739.7299062877029" stroke="#323232" stroke-width="2" fill="none" marker-end="url(#SvgjsMarker1084)"></path></g><g id="SvgjsG1086" transform="translate(603.7823110252915,607.370711078704)"><path id="SvgjsPath1087" d="M 0 4Q 0 0 4 0L 160.54545454545473 0Q 164.54545454545473 0 164.54545454545473 4L 164.54545454545473 221.3116141881248Q 164.54545454545473 225.3116141881248 160.54545454545473 225.3116141881248L 4 225.3116141881248Q 0 225.3116141881248 0 221.3116141881248Z" stroke="rgba(50,50,50,1)" stroke-width="2" fill-opacity="1" fill="#9999ff"></path><g id="SvgjsG1088"><text id="SvgjsText1089" font-family="微软雅黑" text-anchor="middle" font-size="13px" width="145px" fill="#323232" font-weight="400" align="middle" anchor="middle" family="微软雅黑" size="13px" weight="400" font-style="" opacity="1" y="102.7058070940624" transform="rotate(0)"></text></g></g><g id="SvgjsG1090"><path id="SvgjsPath1091" d="M477.4626853637758 431.76260330962407C 477.4626853637758 540.8306387494398 686.0550382980189 498.3026756388882 686.0550382980189 607.370711078704" stroke="#323232" stroke-width="2" fill="none" marker-end="url(#SvgjsMarker1092)"></path></g><g id="SvgjsG1094" transform="translate(262.4224312356598,541.8690376957377)"><path id="SvgjsPath1095" d="M 0 0L 130.82644628099183 0L 130.82644628099183 46.928990050429206L 0 46.928990050429206Z" stroke="none" fill="none"></path><g id="SvgjsG1096"><text id="SvgjsText1097" font-family="微软雅黑" text-anchor="middle" font-size="15px" width="131px" fill="#ff3333" font-weight="700" align="middle" anchor="middle" family="微软雅黑" size="15px" weight="700" font-style="" opacity="1" y="11.714495025214603" transform="rotate(0)"><tspan id="SvgjsTspan1098" dy="18" x="65.5"><tspan id="SvgjsTspan1099" style="text-decoration:;">earlyRealObjects</tspan></tspan></text></g></g><g id="SvgjsG1100" transform="translate(275.60049284347355,596.0814728004998)"><path id="SvgjsPath1101" d="M 0 4Q 0 0 4 0L 100.47032306536437 0Q 104.47032306536437 0 104.47032306536437 4L 104.47032306536437 49.824349231567794Q 104.47032306536437 53.824349231567794 100.47032306536437 53.824349231567794L 4 53.824349231567794Q 0 53.824349231567794 0 49.824349231567794Z" stroke="rgba(50,50,50,1)" stroke-width="2" fill-opacity="1" fill="#33ffff"></path><g id="SvgjsG1102"><text id="SvgjsText1103" font-family="微软雅黑" text-anchor="middle" font-size="18px" width="85px" fill="#323232" font-weight="700" align="middle" anchor="middle" family="微软雅黑" size="18px" weight="700" font-style="" opacity="1" y="12.712174615783898" transform="rotate(0)"><tspan id="SvgjsTspan1104" dy="22" x="52.5"><tspan id="SvgjsTspan1105" style="text-decoration:;">obj4</tspan></tspan></text></g></g><g id="SvgjsG1106" transform="translate(610.1459473889286,604.2871066003464)"><path id="SvgjsPath1107" d="M 0 0L 145.45454545454504 0L 145.45454545454504 37.41308163187472L 0 37.41308163187472Z" stroke="none" fill="none"></path><g id="SvgjsG1108"><text id="SvgjsText1109" font-family="微软雅黑" text-anchor="middle" font-size="15px" width="146px" fill="#ff3333" font-weight="700" align="middle" anchor="middle" family="微软雅黑" size="15px" weight="700" font-style="" opacity="1" y="6.956540815937359" transform="rotate(0)"><tspan id="SvgjsTspan1110" dy="18" x="73"><tspan id="SvgjsTspan1111" style="text-decoration:;">earlyProxyObjects</tspan></tspan></text></g></g><g id="SvgjsG1112" transform="translate(275.76578209967187,682.4451091641369)"><path id="SvgjsPath1113" d="M 0 4Q 0 0 4 0L 100.47032306536437 0Q 104.47032306536437 0 104.47032306536437 4L 104.47032306536437 49.824349231567794Q 104.47032306536437 53.824349231567794 100.47032306536437 53.824349231567794L 4 53.824349231567794Q 0 53.824349231567794 0 49.824349231567794Z" stroke="rgba(50,50,50,1)" stroke-width="2" fill-opacity="1" fill="#3399ff"></path><g id="SvgjsG1114"><text id="SvgjsText1115" font-family="微软雅黑" text-anchor="middle" font-size="18px" width="85px" fill="#323232" font-weight="700" align="middle" anchor="middle" family="微软雅黑" size="18px" weight="700" font-style="" opacity="1" y="12.712174615783898" transform="rotate(0)"><tspan id="SvgjsTspan1116" dy="22" x="52.5"><tspan id="SvgjsTspan1117" style="text-decoration:;">obj5</tspan></tspan></text></g></g><g id="SvgjsG1118" transform="translate(276.0813343160505,772.4451091641365)"><path id="SvgjsPath1119" d="M 0 4Q 0 0 4 0L 100.47032306536437 0Q 104.47032306536437 0 104.47032306536437 4L 104.47032306536437 49.824349231567794Q 104.47032306536437 53.824349231567794 100.47032306536437 53.824349231567794L 4 53.824349231567794Q 0 53.824349231567794 0 49.824349231567794Z" stroke="rgba(50,50,50,1)" stroke-width="2" fill-opacity="1" fill="#ffff33"></path><g id="SvgjsG1120"><text id="SvgjsText1121" font-family="微软雅黑" text-anchor="middle" font-size="18px" width="85px" fill="#323232" font-weight="700" align="middle" anchor="middle" family="微软雅黑" size="18px" weight="700" font-style="" opacity="1" y="12.712174615783898" transform="rotate(0)"><tspan id="SvgjsTspan1122" dy="22" x="52.5"><tspan id="SvgjsTspan1123" style="text-decoration:;">obj6</tspan></tspan></text></g></g><g id="SvgjsG1124" transform="translate(622.9558647442999,649.9713770606031)"><path id="SvgjsPath1125" d="M 0 4Q 0 0 4 0L 124.1818181818179 0Q 128.1818181818179 0 128.1818181818179 4L 128.1818181818179 48.96448882996526Q 128.1818181818179 52.96448882996526 124.1818181818179 52.96448882996526L 4 52.96448882996526Q 0 52.96448882996526 0 48.96448882996526Z" stroke="rgba(50,50,50,1)" stroke-width="2" fill-opacity="1" fill="#33ffff"></path><g id="SvgjsG1126"><text id="SvgjsText1127" font-family="微软雅黑" text-anchor="middle" font-size="18px" width="109px" fill="#323232" font-weight="700" align="middle" anchor="middle" family="微软雅黑" size="18px" weight="700" font-style="" opacity="1" y="12.282244414982632" transform="rotate(0)"><tspan id="SvgjsTspan1128" dy="22" x="64.5"><tspan id="SvgjsTspan1129" style="text-decoration:;">obj4Proxy</tspan></tspan></text></g></g><g id="SvgjsG1130" transform="translate(624.7740465624815,739.0622861515124)"><path id="SvgjsPath1131" d="M 0 4Q 0 0 4 0L 124.1818181818179 0Q 128.1818181818179 0 128.1818181818179 4L 128.1818181818179 48.96448882996526Q 128.1818181818179 52.96448882996526 124.1818181818179 52.96448882996526L 4 52.96448882996526Q 0 52.96448882996526 0 48.96448882996526Z" stroke="rgba(50,50,50,1)" stroke-width="2" fill-opacity="1" fill="#ffff33"></path><g id="SvgjsG1132"><text id="SvgjsText1133" font-family="微软雅黑" text-anchor="middle" font-size="18px" width="109px" fill="#323232" font-weight="700" align="middle" anchor="middle" family="微软雅黑" size="18px" weight="700" font-style="" opacity="1" y="12.282244414982632" transform="rotate(0)"><tspan id="SvgjsTspan1134" dy="22" x="64.5"><tspan id="SvgjsTspan1135" style="text-decoration:;">obj6Proxy</tspan></tspan></text></g></g><g id="SvgjsG1136"><path id="SvgjsPath1137" d="M380.0708159088379 622.9936474162839C 479.5503541258811 622.9936474162839 523.4763265272568 676.4536214755858 622.9558647442999 676.4536214755858" stroke="#323232" stroke-width="2" fill="none" marker-end="url(#SvgjsMarker1138)"></path></g><g id="SvgjsG1140"><path id="SvgjsPath1141" d="M380.5516573814149 799.3572837799204C 479.172448420368 799.3572837799204 526.1532555235284 765.544530566495 624.7740465624815 765.544530566495" stroke="#323232" stroke-width="2" fill="none" marker-end="url(#SvgjsMarker1142)"></path></g><g id="SvgjsG1144" transform="matrix(0.9396926164627075,0.3420201539993286,-0.3420201539993286,0.9396926164627075,453.1988220214844,585.983154296875)"><path id="SvgjsPath1145" d="M 0 0L 120 0L 120 40L 0 40Z" stroke="none" fill="none"></path><g id="SvgjsG1146"><text id="SvgjsText1147" font-family="微软雅黑" text-anchor="middle" font-size="18px" width="120px" fill="#323232" font-weight="700" align="middle" anchor="middle" family="微软雅黑" size="18px" weight="700" font-style="" opacity="1" y="5.800000000000001" transform="rotate(0)"><tspan id="SvgjsTspan1148" dy="22" x="60"><tspan id="SvgjsTspan1149" style="text-decoration:;">JDK动态代理</tspan></tspan></text></g></g><g id="SvgjsG1150" transform="matrix(0.9848077297210693,-0.1736481785774231,0.1736481785774231,0.9848077297210693,431.9967346191406,754.8500366210938)"><path id="SvgjsPath1151" d="M 0 0L 120 0L 120 40L 0 40Z" stroke="none" fill="none"></path><g id="SvgjsG1152"><text id="SvgjsText1153" font-family="微软雅黑" text-anchor="middle" font-size="18px" width="120px" fill="#323232" font-weight="700" align="middle" anchor="middle" family="微软雅黑" size="18px" weight="700" font-style="" opacity="1" y="5.800000000000001" transform="rotate(0)"><tspan id="SvgjsTspan1154" dy="22" x="60"><tspan id="SvgjsTspan1155" style="text-decoration:;">CGLib代理</tspan></tspan></text></g></g><g id="SvgjsG1156" transform="translate(864.9944322374128,638.5445498906071)"><path id="SvgjsPath1157" d="M 0 0L 157.3333333333336 0L 173.3333333333336 16L 173.3333333333336 231.96649613025886L 0 231.96649613025886L 0 0Z" stroke="none" fill-opacity="1" fill="#ffffaa"></path><path id="SvgjsPath1158" d="M 157.3333333333336 0L 157.3333333333336 16L 173.3333333333336 16Z" stroke="none" fill-opacity="1" fill="#cdcdcd"></path><path id="SvgjsPath1159" d="M 0 0L 157.3333333333336 0L 173.3333333333336 16L 173.3333333333336 231.96649613025886L 0 231.96649613025886L 0 0Z" stroke="none" fill="none"></path><g id="SvgjsG1160"><text id="SvgjsText1161" font-family="微软雅黑" text-anchor="middle" font-size="18px" width="154px" fill="#323232" font-weight="700" align="middle" anchor="middle" family="微软雅黑" size="18px" weight="700" font-style="" opacity="1" y="21.28324806512943" transform="rotate(0)"><tspan id="SvgjsTspan1162" dy="22" x="87"><tspan id="SvgjsTspan1163" style="text-decoration:;">二级缓存的</tspan></tspan><tspan id="SvgjsTspan1164" dy="22" x="87"><tspan id="SvgjsTspan1165" style="text-decoration:;">earlyProxyObject</tspan></tspan><tspan id="SvgjsTspan1166" dy="22" x="87"><tspan id="SvgjsTspan1167" style="text-decoration:;">s中存放的都是对</tspan></tspan><tspan id="SvgjsTspan1168" dy="22" x="87"><tspan id="SvgjsTspan1169" style="text-decoration:;">earlyRealObjects</tspan></tspan><tspan id="SvgjsTspan1170" dy="22" x="87"><tspan id="SvgjsTspan1171" style="text-decoration:;">中对象设置了代理</tspan></tspan><tspan id="SvgjsTspan1172" dy="22" x="87"><tspan id="SvgjsTspan1173" style="text-decoration:;">后的代理对象，但</tspan></tspan><tspan id="SvgjsTspan1174" dy="22" x="87"><tspan id="SvgjsTspan1175" style="text-decoration:;">也还没有进行初始</tspan></tspan><tspan id="SvgjsTspan1176" dy="22" x="87"><tspan id="SvgjsTspan1177" style="text-decoration:;">化操作</tspan></tspan></text></g></g><g id="SvgjsG1178"><path id="SvgjsPath1179" d="M768.3277655707462 720.0265181727666C 809.3834014832146 720.0265181727666 823.9387963249444 754.5277979557374 864.9944322374128 754.5277979557374" stroke="#323232" stroke-width="2" fill="none" marker-end="url(#SvgjsMarker1180)"></path></g><g id="SvgjsG1182" transform="translate(417.4626853637757,37.22777981228299)"><path id="SvgjsPath1183" d="M 0 0L 120 0L 120 40L 0 40Z" stroke="none" fill="none"></path><g id="SvgjsG1184"><text id="SvgjsText1185" font-family="微软雅黑" text-anchor="middle" font-size="18px" width="120px" fill="#33001a" font-weight="700" align="middle" anchor="middle" family="微软雅黑" size="18px" weight="700" font-style="" opacity="1" y="5.800000000000001" transform="rotate(0)"><tspan id="SvgjsTspan1186" dy="22" x="60"><tspan id="SvgjsTspan1187" style="text-decoration:;">iocByName</tspan></tspan></text></g></g><g id="SvgjsG1188" transform="translate(332.77221001519126,103.33889092339413)"><path id="SvgjsPath1189" d="M 0 4Q 0 0 4 0L 133.77777777777777 0Q 137.77777777777777 0 137.77777777777777 4L 137.77777777777777 65.44444444444446Q 137.77777777777777 69.44444444444446 133.77777777777777 69.44444444444446L 4 69.44444444444446Q 0 69.44444444444446 0 65.44444444444446Z" stroke="rgba(50,50,50,1)" stroke-width="2" fill-opacity="1" fill="#99ffcc"></path><g id="SvgjsG1190"><text id="SvgjsText1191" font-family="微软雅黑" text-anchor="middle" font-size="18px" width="118px" fill="#323232" font-weight="700" align="middle" anchor="middle" family="微软雅黑" size="18px" weight="700" font-style="" opacity="1" y="20.52222222222223" transform="rotate(0)"><tspan id="SvgjsTspan1192" dy="22" x="69"><tspan id="SvgjsTspan1193" style="text-decoration:;">obj1Proxy</tspan></tspan></text></g></g><g id="SvgjsG1194" transform="translate(484.88179570876446,103.4211954501431)"><path id="SvgjsPath1195" d="M 0 4Q 0 0 4 0L 133.77777777777777 0Q 137.77777777777777 0 137.77777777777777 4L 137.77777777777777 65.44444444444446Q 137.77777777777777 69.44444444444446 133.77777777777777 69.44444444444446L 4 69.44444444444446Q 0 69.44444444444446 0 65.44444444444446Z" stroke="rgba(50,50,50,1)" stroke-width="2" fill-opacity="1" fill="#ccccff"></path><g id="SvgjsG1196"><text id="SvgjsText1197" font-family="微软雅黑" text-anchor="middle" font-size="18px" width="118px" fill="#323232" font-weight="700" align="middle" anchor="middle" family="微软雅黑" size="18px" weight="700" font-style="" opacity="1" y="20.52222222222223" transform="rotate(0)"><tspan id="SvgjsTspan1198" dy="22" x="69"><tspan id="SvgjsTspan1199" style="text-decoration:;">obj2</tspan></tspan></text></g></g><g id="SvgjsG1200" transform="translate(335.4973480806631,217.78333536783862)"><path id="SvgjsPath1201" d="M 0 4Q 0 0 4 0L 133.77777777777777 0Q 137.77777777777777 0 137.77777777777777 4L 137.77777777777777 65.44444444444446Q 137.77777777777777 69.44444444444446 133.77777777777777 69.44444444444446L 4 69.44444444444446Q 0 69.44444444444446 0 65.44444444444446Z" stroke="rgba(50,50,50,1)" stroke-width="2" fill-opacity="1" fill="#ccffcc"></path><g id="SvgjsG1202"><text id="SvgjsText1203" font-family="微软雅黑" text-anchor="middle" font-size="18px" width="118px" fill="#323232" font-weight="700" align="middle" anchor="middle" family="微软雅黑" size="18px" weight="700" font-style="" opacity="1" y="20.52222222222223" transform="rotate(0)"><tspan id="SvgjsTspan1204" dy="22" x="69"><tspan id="SvgjsTspan1205" style="text-decoration:;">obj3Proxy</tspan></tspan></text></g></g></svg>